<svg width="19" height="21" viewBox="0 0 19 21" fill="none" xmlns="http://www.w3.org/2000/svg">
<path d="M0 4.92069C0 3.3743 1.2536 2.1207 2.8 2.1207H16.2C17.7464 2.1207 19 3.3743 19 4.9207V17.5C19 19.1569 17.6569 20.5 16 20.5H3C1.34315 20.5 0 19.1569 0 17.5V4.92069Z" fill="#D9D9D9"/>
<path d="M0 7.77585H19V18.5C19 19.6046 18.1046 20.5 17 20.5H2C0.895431 20.5 0 19.6046 0 18.5V7.77585Z" fill="#8F94A2"/>
<rect x="4.38461" y="10.6035" width="2.19231" height="2.12069" fill="#D9D9D9"/>
<rect x="13.1538" y="14.8448" width="2.19231" height="2.12069" fill="#D9D9D9"/>
<rect x="8.76923" y="14.8448" width="2.19231" height="2.12069" fill="#D9D9D9"/>
<rect x="4.38461" y="14.8448" width="2.19231" height="2.12069" fill="#D9D9D9"/>
<rect x="13.1538" y="10.6035" width="2.19231" height="2.12069" fill="#D9D9D9"/>
<rect x="8.76923" y="10.6035" width="2.19231" height="2.12069" fill="#D9D9D9"/>
<rect x="5.84615" width="2.92308" height="4.94828" fill="#A4A9B3"/>
<rect x="11.6923" width="2.92308" height="4.94828" fill="#A4A9B3"/>
</svg>
