<svg width="19" height="19" viewBox="0 0 19 19" fill="none" xmlns="http://www.w3.org/2000/svg">
<line x1="4.88461" y1="10.3636" x2="4.88461" y2="17.2727" stroke="#C5CDD6"/>
<line x1="13.6538" y1="1.72726" x2="13.6538" y2="8.63636" stroke="#C5CDD6"/>
<path d="M4.57628 1.10354C4.79555 0.654695 5.43522 0.654695 5.65449 1.10354L9.12366 8.20481C9.31838 8.60341 9.02817 9.06818 8.58455 9.06818H1.64622C1.2026 9.06818 0.912387 8.60341 1.10711 8.20481L4.57628 1.10354Z" fill="#888F9A"/>
<path d="M14.4237 17.8965C14.2045 18.3453 13.5648 18.3453 13.3455 17.8965L9.87634 10.7952C9.68162 10.3966 9.97183 9.93182 10.4154 9.93182H17.3538C17.7974 9.93182 18.0876 10.3966 17.8929 10.7952L14.4237 17.8965Z" fill="#888F9A"/>
</svg>
