<svg width="19" height="19" viewBox="0 0 19 19" fill="none" xmlns="http://www.w3.org/2000/svg">
<path d="M6.41211 10.4502C7.59262 10.4502 8.5498 11.4074 8.5498 12.5879V14.9629C8.54959 16.1432 7.59249 17.0996 6.41211 17.0996H4.03711C2.85691 17.0994 1.9006 16.1431 1.90039 14.9629V12.5879C1.90039 11.4075 2.85678 10.4504 4.03711 10.4502H6.41211ZM14.9629 10.4502C16.1432 10.4504 17.0996 11.4075 17.0996 12.5879V14.9629C17.0994 16.1431 16.1431 17.0994 14.9629 17.0996H12.5879C11.4075 17.0996 10.4504 16.1432 10.4502 14.9629V12.5879C10.4502 11.4074 11.4074 10.4502 12.5879 10.4502H14.9629ZM6.41211 1.90039C7.59249 1.90039 8.54959 2.85678 8.5498 4.03711V6.41211C8.5498 7.59262 7.59262 8.5498 6.41211 8.5498H4.03711C2.85678 8.54959 1.90039 7.59249 1.90039 6.41211V4.03711C1.9006 2.85691 2.85691 1.9006 4.03711 1.90039H6.41211ZM14.9629 1.90039C16.1431 1.9006 17.0994 2.85691 17.0996 4.03711V6.41211C17.0996 7.59249 16.1432 8.54959 14.9629 8.5498H12.5879C11.4074 8.5498 10.4502 7.59262 10.4502 6.41211V4.03711C10.4504 2.85678 11.4075 1.90039 12.5879 1.90039H14.9629Z" fill="#2B2F7C"/>
</svg>
