<svg width="20" height="19" viewBox="0 0 20 19" fill="none" xmlns="http://www.w3.org/2000/svg">
<path fill-rule="evenodd" clip-rule="evenodd" d="M2.68365 18.7442C2.8593 18.7757 3.03731 18.8003 3.2169 18.8178C3.43516 18.8391 3.65647 18.85 3.88 18.85C5.1953 18.85 6.42447 18.473 7.46316 17.8213C8.2369 18.0034 9.04679 18.1 9.88 18.1C15.202 18.1 19.63 14.1306 19.63 9.09998C19.63 4.06932 15.202 0.0999756 9.88 0.0999756C4.55799 0.0999756 0.129997 4.06932 0.129997 9.09998C0.129997 11.5085 1.15459 13.6871 2.80371 15.2923C3.03571 15.5182 3.08107 15.7196 3.05822 15.8348C2.93254 16.4684 2.64687 17.0451 2.24356 17.5211C2.07016 17.7258 2.01926 18.0075 2.11008 18.2599C2.2009 18.5123 2.4196 18.697 2.68365 18.7442ZM6.13 7.97498C5.50868 7.97498 5.005 8.47865 5.005 9.09998C5.005 9.7213 5.50868 10.225 6.13 10.225C6.75132 10.225 7.255 9.7213 7.255 9.09998C7.255 8.47865 6.75132 7.97498 6.13 7.97498ZM8.755 9.09998C8.755 8.47865 9.25868 7.97498 9.88 7.97498C10.5013 7.97498 11.005 8.47865 11.005 9.09998C11.005 9.7213 10.5013 10.225 9.88 10.225C9.25868 10.225 8.755 9.7213 8.755 9.09998ZM13.63 7.97498C13.0087 7.97498 12.505 8.47865 12.505 9.09998C12.505 9.7213 13.0087 10.225 13.63 10.225C14.2513 10.225 14.755 9.7213 14.755 9.09998C14.755 8.47865 14.2513 7.97498 13.63 7.97498Z" fill="#CED8E2"/>
</svg>
