<svg width="18" height="18" viewBox="0 0 18 18" fill="none" xmlns="http://www.w3.org/2000/svg">
<path fill-rule="evenodd" clip-rule="evenodd" d="M6.35777 0.803885C6.45126 0.33646 6.86167 0 7.33835 0H9.69874C10.1754 0 10.5858 0.33646 10.6793 0.803884L11.0098 2.45629C11.7141 2.72458 12.3639 3.10332 12.9381 3.57133L14.5364 3.03065C14.988 2.8779 15.4845 3.06509 15.7229 3.47791L16.9031 5.52207C17.1414 5.93489 17.0552 6.45855 16.6972 6.77322L15.4305 7.88645C15.4884 8.24909 15.5185 8.62103 15.5185 9C15.5185 9.37897 15.4884 9.7509 15.4305 10.1135L16.6972 11.2268C17.0552 11.5414 17.1414 12.0651 16.9031 12.4779L15.7229 14.5221C15.4845 14.9349 14.988 15.1221 14.5364 14.9693L12.9381 14.4287C12.364 14.8967 11.7141 15.2754 11.0098 15.5437L10.6793 17.1961C10.5858 17.6635 10.1754 18 9.69874 18H7.33835C6.86167 18 6.45126 17.6635 6.35777 17.1961L6.02729 15.5437C5.32298 15.2754 4.67315 14.8967 4.09898 14.4287L2.50069 14.9694C2.04914 15.1221 1.55255 14.9349 1.31421 14.5221L0.134017 12.4779C-0.104323 12.0651 -0.0181479 11.5415 0.339911 11.2268L1.60663 10.1135C1.54866 9.75091 1.51855 9.37897 1.51855 9C1.51855 8.62103 1.54866 8.2491 1.60663 7.88647L0.339911 6.77324C-0.0181478 6.45857 -0.104324 5.93491 0.134017 5.52209L1.31421 3.47793C1.55255 3.06511 2.04914 2.87791 2.50069 3.03066L4.09896 3.57134C4.67314 3.10332 5.32297 2.72459 6.02729 2.45629L6.35777 0.803885ZM8.51855 12C10.1754 12 11.5185 10.6569 11.5185 9C11.5185 7.34315 10.1754 6 8.51855 6C6.86169 6 5.51855 7.34315 5.51855 9C5.51855 10.6569 6.86169 12 8.51855 12Z" fill="#CED6DC"/>
</svg>
